<svg width="240" height="161" viewBox="0 0 240 161" fill="none" xmlns="http://www.w3.org/2000/svg">
<g clip-path="url(#clip0)">
<path d="M101.164 17.3086C101.871 14.9168 101.494 12.6937 100.321 12.3431C99.1474 11.9925 97.6228 13.6472 96.9152 16.039C96.2076 18.4308 96.5851 20.654 97.7582 21.0046C98.9313 21.3552 100.456 19.7005 101.164 17.3086Z" fill="#EA5D80"/>
<path d="M44.1526 122.963C45.9645 121.646 46.9192 119.864 46.285 118.983C45.6509 118.102 43.668 118.455 41.8561 119.773C40.0442 121.09 39.0895 122.872 39.7237 123.753C40.3579 124.634 42.3407 124.281 44.1526 122.963Z" fill="#E43A56"/>
<path d="M28.641 21.0429C29.4665 20.9531 29.9878 19.507 29.8054 17.8129C29.6229 16.1188 28.8059 14.8183 27.9804 14.9081C27.155 14.9979 26.6337 16.444 26.8161 18.1381C26.9986 19.8321 27.8156 21.1327 28.641 21.0429Z" fill="#E43A56"/>
<path d="M86.3089 26.0304C87.0248 25.4476 86.8345 24.0187 85.8838 22.8389C84.933 21.6591 83.5819 21.1751 82.8659 21.7579C82.15 22.3408 82.3403 23.7697 83.291 24.9495C84.2418 26.1293 85.5929 26.6132 86.3089 26.0304Z" fill="#E43A56"/>
<path d="M54.5116 127.206C55.2882 127.14 55.8325 126.075 55.7273 124.828C55.6221 123.581 54.9073 122.624 54.1307 122.69C53.3541 122.756 52.8099 123.82 52.915 125.068C53.0202 126.315 53.735 127.272 54.5116 127.206Z" fill="#EA5D80"/>
<path d="M13.1821 66.9329C14.4379 66.7652 15.3741 66.0106 15.2732 65.2474C15.1723 64.4842 14.0726 64.0015 12.8168 64.1692C11.561 64.3368 10.6247 65.0915 10.7256 65.8546C10.8265 66.6178 11.9263 67.1005 13.1821 66.9329Z" fill="#EA5D80"/>
<path d="M75.6791 30.5652C71.9402 25.1355 67.4594 20.4759 62.9301 16.7034C62.9301 16.6985 62.9253 16.6936 62.9253 16.6936C62.5228 16.3573 62.13 16.0259 61.7323 15.7042L61.7178 15.6993C60.9128 15.0559 60.1126 14.4418 59.3077 13.8618C58.3863 13.1794 57.4746 12.5409 56.5775 11.9463C56.1071 11.6343 55.6318 11.3273 55.1663 11.0299H55.1615C55.0354 10.952 54.9141 10.874 54.7881 10.796C47.1988 6.0779 40.788 4.25987 39.3913 5.89756C33.7806 12.4775 40.8413 33.0363 40.8413 33.0363L47.868 38.583L40.4049 37.5205C40.4049 37.5205 41.753 40.8592 44.1292 45.6699C45.4676 48.3799 47.1358 51.5675 49.0804 54.8819C49.7738 56.0663 50.4915 57.2604 51.2626 58.4497C51.2626 58.4497 51.2626 58.4497 51.2674 58.4594C53.2411 61.5886 55.433 64.7324 57.7995 67.5983C58.1778 68.0662 58.5657 68.5244 58.9585 68.9679C59.0797 69.119 59.2107 69.2652 59.3368 69.4017C59.5792 69.6795 59.8314 69.9574 60.0787 70.2303C60.8061 71.0199 61.5481 71.7803 62.2949 72.5065C62.5276 71.6877 62.7798 70.8737 63.0562 70.0695C63.1241 69.8648 63.192 69.66 63.2647 69.4553C63.2938 69.3676 63.3229 69.2799 63.352 69.2019C64.2443 66.6527 65.3209 64.1329 66.5817 61.6617C68.1141 58.6593 69.8696 55.8372 71.8045 53.2101C71.8578 53.137 71.9111 53.0736 71.9596 53.0005C74.9808 48.9355 78.4578 45.3385 82.2839 42.2288C80.4509 38.2467 78.2395 34.289 75.6791 30.5652ZM42.461 19.5742C40.8946 19.4864 39.755 16.6887 39.9199 13.3403C40.0751 9.98202 41.4814 7.34028 43.0478 7.42314C44.619 7.51574 45.7537 10.3086 45.5985 13.6571C45.4288 17.0153 44.0322 19.6668 42.461 19.5742Z" fill="#C7B9E4"/>
<path d="M74.8888 48.0924C74.2147 48.9697 71.5864 51.0315 70.9899 51.4896C71.276 51.938 71.5524 52.3816 71.8385 52.8154C71.8822 52.8787 71.921 52.947 71.9598 53.0055C71.9064 53.0786 71.8531 53.1419 71.8046 53.2151C71.7512 53.1273 71.6882 53.0445 71.6349 52.9616C71.2033 52.289 70.7668 51.5969 70.3255 50.8901C69.2587 51.1582 61.5579 52.9713 61.3445 49.9592C61.1457 47.2687 64.322 47.3272 66.252 48.0632C67.1637 48.4141 69.3993 50.0713 70.18 50.6562C68.9725 48.7114 67.736 46.6351 66.5188 44.4564C65.6992 44.6611 57.7074 46.6058 57.4892 43.5303C57.3001 40.8398 60.4667 40.9032 62.3968 41.644C63.357 42.0096 65.8253 43.852 66.446 44.3248C65.2967 42.2533 64.162 40.0941 63.0757 37.8618C62.6441 37.969 54.2159 40.1038 53.9928 36.9503C53.794 34.2598 56.9703 34.3183 58.9004 35.0543C59.9382 35.454 62.7169 37.5547 63.0612 37.8276C62.0476 35.7415 61.0826 33.597 60.1903 31.4085V31.4036C60.1564 31.3208 60.1224 31.2379 60.0885 31.155C59.3999 31.272 51.1414 32.6124 51.1753 29.493C51.2044 26.7879 54.3468 27.1096 56.2041 28.0015C57.1595 28.4694 59.5745 30.6286 60.0497 31.0673C59.1089 28.7375 58.2554 26.359 57.5183 23.9658C57.1692 23.9804 48.4742 24.3947 48.8961 21.2071C49.2501 18.5069 52.3101 19.2087 54.0268 20.3346C54.9579 20.9439 57.2371 23.6197 57.5038 23.9317C56.7424 21.4654 56.1169 18.9796 55.6513 16.4987C54.6087 16.3574 46.9273 15.1584 47.8584 12.2193C48.6925 9.5922 51.539 10.8497 53.0133 12.2827C53.7067 12.9504 55.1082 15.3582 55.6028 16.216C55.2876 14.4809 55.0548 12.7506 54.9288 11.03C54.8851 10.9667 54.8463 10.8838 54.793 10.801C53.8619 9.17303 50.8262 3.4655 53.377 2.23236C55.855 1.02847 56.6794 4.06014 56.5194 6.18035C56.4466 7.18441 55.4864 9.99187 55.1615 10.9277C55.1615 10.9618 55.1664 10.9959 55.1664 11.0349H55.1712C55.3022 12.7701 55.5398 14.5247 55.855 16.2794C55.9326 15.4264 56.1363 13.6377 56.5824 11.9561C57.1352 9.86514 58.0615 7.92527 59.5696 8.1446C62.2125 8.52965 61.1505 11.6003 59.8315 13.316C59.7151 13.4671 59.5308 13.6669 59.3126 13.8765C58.2942 14.8659 56.4321 16.3233 55.9326 16.7083C56.3884 19.0722 56.9897 21.441 57.7026 23.7952C57.882 21.8748 58.6919 15.2607 61.4172 15.6555C61.5239 15.6702 61.6257 15.6896 61.7179 15.714L61.7324 15.7189C62.3822 15.8846 62.7508 16.2404 62.9254 16.7083C62.9254 16.7083 62.9302 16.7083 62.9302 16.7181C63.357 17.8635 62.5811 19.6523 61.6791 20.822C61.0244 21.6799 58.4979 23.6636 57.8287 24.1851C58.5318 26.437 59.3368 28.6741 60.2243 30.8724C60.4086 28.9276 61.2184 22.3622 63.9389 22.757C66.5818 23.1421 65.5246 26.2079 64.2008 27.9284C63.5509 28.7668 61.102 30.7018 60.3795 31.2525C61.3348 33.5872 62.3726 35.8731 63.454 38.0957C63.5364 37.0234 64.2347 29.1372 67.1977 29.5612C69.8406 29.9463 68.7834 33.0121 67.4595 34.7326C66.7564 35.6489 63.9001 37.8618 63.4976 38.1834C64.5645 40.3621 65.6895 42.4775 66.8194 44.5002C66.9407 43.0136 67.6923 35.7025 70.5534 36.1168C73.1964 36.5019 72.1343 39.5677 70.8202 41.2833C70.1461 42.1607 67.508 44.2273 66.9213 44.6806C68.2451 47.0396 69.5787 49.2768 70.8832 51.3385C71.0044 49.8714 71.7512 42.5262 74.6172 42.9405C77.2698 43.3061 76.2078 46.3719 74.8888 48.0924Z" fill="#E6DBFE"/>
<path d="M62.2949 72.5066C62.5277 71.6878 62.7799 70.8738 63.0563 70.0696C63.1242 69.8649 63.192 69.6602 63.2648 69.4555C61.5481 68.7439 59.7102 68.1249 57.7996 67.5936C56.0877 67.1257 54.3032 66.7211 52.4846 66.4043C52.0725 66.3214 51.6603 66.2581 51.2384 66.1947C47.5577 65.6147 43.7364 65.3515 39.9781 65.4197C39.9733 65.41 39.9636 65.4149 39.9587 65.4197C33.0532 65.5318 26.3272 66.7504 21.0123 69.1923L22.7386 73.9445L17.0649 70.8592C17.0649 70.8592 -2.51686 77.834 0.281221 85.0477C3.07446 92.271 22.3216 95.99 22.3216 95.99L31.0165 91.3401L25.6677 98.3052C25.6677 98.3052 30.7498 99.3872 37.7232 100.026C37.728 100.026 37.7329 100.021 37.7377 100.031C38.0432 100.055 38.3487 100.079 38.664 100.109C38.6737 100.104 38.6785 100.109 38.6931 100.109C40.3418 100.245 42.107 100.357 43.911 100.421C45.6761 100.479 47.4947 100.494 49.3326 100.445C50.38 100.421 51.4275 100.372 52.4701 100.304C54.245 100.182 56.0101 99.9916 57.7365 99.7138C58.7452 99.5529 59.7441 99.3628 60.7189 99.1435C59.298 90.3848 59.7587 81.2946 62.2949 72.5066ZM12.3755 88.7666C11.6481 89.9364 8.95189 89.5708 6.36233 87.9526C3.78731 86.349 2.29856 84.0923 3.04051 82.9323C3.78731 81.7674 6.47871 82.1378 9.04887 83.7512C11.6239 85.3645 13.1223 87.6163 12.3755 88.7666Z" fill="#A895CE"/>
<path d="M57.4263 111.265C54.6864 111.051 55.1616 107.99 56.1752 106.23C56.6892 105.319 58.9975 103.091 59.463 102.648C57.0577 103.418 54.6137 104.095 52.1453 104.651C52.155 104.997 52.1356 113.57 48.9205 112.942C46.2 112.391 47.0777 109.432 48.2998 107.819C48.9593 106.956 51.7816 104.904 52.1114 104.661C49.5752 105.226 47.0292 105.674 44.5027 105.962C44.299 106.966 42.7036 114.462 39.7649 113.322C37.1608 112.318 38.5768 109.613 40.0898 108.263C40.8026 107.629 43.3195 106.406 44.2069 105.996C42.432 106.167 40.6717 106.274 38.9162 106.289C37.6457 106.912 31.1281 109.944 29.94 107.21C28.8441 104.685 31.9525 104.086 34.0862 104.388C35.1046 104.539 37.893 105.67 38.8338 106.055C40.6281 106.04 42.4466 105.938 44.2893 105.743C42.3399 105.436 35.6865 104.173 36.2248 101.517C36.4236 100.532 36.9959 100.113 37.7184 100.045C37.7233 100.045 37.7281 100.04 37.733 100.05C38.0239 100.021 38.3343 100.055 38.6592 100.128C38.6689 100.123 38.6738 100.128 38.6883 100.128C39.6533 100.357 40.7105 100.971 41.4864 101.619C42.3302 102.35 44.2796 105.06 44.7258 105.694C47.1359 105.411 49.5752 104.997 51.9999 104.446C50.1183 104.144 43.7608 102.935 43.9111 100.435C43.9062 100.367 43.9159 100.293 43.9305 100.22C44.4494 97.6371 47.5045 98.9092 49.1824 100.323C49.2309 100.367 49.2793 100.41 49.3278 100.459C50.2201 101.317 51.9271 103.691 52.3926 104.349C54.7058 103.813 57.0141 103.184 59.2739 102.458C57.9306 102.243 54.3712 101.57 52.4654 100.318C51.607 99.7476 51.0833 99.0652 51.2482 98.2464C51.7622 95.6582 54.8173 96.9206 56.4904 98.3438C56.8007 98.6022 57.2566 99.1334 57.7367 99.7281C58.5174 100.708 59.3515 101.868 59.6764 102.331C60.1856 102.155 60.6899 102.004 61.204 101.824C61.2137 101.897 61.2331 101.97 61.2525 102.048C60.7821 102.228 60.3068 102.384 59.8267 102.536C59.7491 102.565 59.6522 102.594 59.5746 102.623C59.6473 103.311 60.5929 111.533 57.4263 111.265Z" fill="#E6DBFE"/>
<path d="M63.3522 69.202C63.3182 69.2799 63.2891 69.3677 63.2649 69.4554C63.1922 69.6601 63.1243 69.8648 63.0564 70.0695C61.9265 69.8063 60.7044 69.4846 60.7044 69.4846C60.525 69.6991 60.3116 69.9526 60.0789 70.2255C57.8627 72.8331 53.4061 77.5658 49.2599 77.7559C44.2942 77.9899 42.9655 75.9769 47.325 71.9509C49.5848 69.8551 56.2624 69.6894 59.3369 69.3969C59.6279 69.3677 59.8897 69.3433 60.1031 69.3141C59.7249 69.202 59.3418 69.085 58.9587 68.9631C57.853 68.6219 56.7522 68.2369 55.6708 67.8128C54.5845 67.3937 53.5274 66.9209 52.4848 66.4042C52.1889 66.258 51.9028 66.1118 51.6119 65.9607C51.5003 66.0338 51.3742 66.1069 51.2433 66.1947C49.1096 67.5399 44.6288 70.3571 41.8549 72.063C38.1064 74.3685 32.9224 74.3392 31.6858 72.7746C30.4686 71.2442 35.3325 66.4384 39.9588 65.4148C39.9685 65.4099 39.9734 65.4051 39.9782 65.4148C40.0461 65.3953 40.1043 65.3807 40.1722 65.3661C43.2613 64.7617 47.6208 64.981 50.2298 65.2003C47.9651 63.9233 45.812 62.466 43.7995 60.9063C42.238 61.4229 38.1985 62.7536 35.7738 63.5285C32.7139 64.4985 28.3301 63.2069 27.4475 61.8811C26.1381 59.8974 30.1389 56.6464 34.4597 56.8901C36.4915 57.0119 40.6038 59.0444 42.3835 59.7755C40.1965 57.977 38.1743 56.0712 36.3412 54.1703C34.6245 54.8625 28.9508 57.1289 25.6193 58.4254C21.667 59.9607 16.8322 58.7812 15.9981 56.9144C15.1543 55.0477 20.8523 51.1046 25.4107 51.202C28.8635 51.2752 33.6547 52.8251 35.769 53.5757C33.3976 51.0704 31.3609 48.6042 29.6927 46.4206C28.6792 46.6692 25.2604 47.5367 23.2528 48.0242C20.8814 48.6042 18.2337 47.449 17.9185 46.2451C17.5936 45.0364 21.1578 43.1696 23.7329 43.6375C25.6532 43.9787 28.1846 45.3142 29.3533 45.9673C27.7578 43.852 26.5261 42.0339 25.692 40.7472C23.9317 39.3337 20.639 36.2777 18.7865 31.852C15.5956 24.229 22.8697 22.0503 25.5271 28.5474C26.8365 31.7643 26.9189 38.2614 26.9043 40.6838C27.9276 42.2289 29.4066 44.3589 31.2979 46.7618C30.4929 44.8024 29.4988 41.566 29.8722 38.3589C30.4638 33.2265 32.6654 30.3313 34.77 30.4824C36.38 30.5945 37.5972 34.4499 36.283 38.7537C35.2162 42.2825 33.1309 46.7179 32.4229 48.1996C34.0669 50.2029 35.9678 52.3474 38.1015 54.4774C37.2917 52.8446 36.2879 50.2321 36.4188 47.5514C36.637 43.1647 38.3925 40.5766 40.2353 40.5668C41.6464 40.5571 42.9315 43.7447 42.0441 47.4734C41.3312 50.4563 39.8279 54.2337 39.2605 55.6131C41.2439 57.5042 43.397 59.3466 45.7199 61.0476C44.9343 58.7568 43.3485 53.6391 43.3243 49.8812C43.3146 48.5311 43.625 47.0688 44.1244 45.67C45.4726 41.8926 48.1882 38.5733 49.6527 39.1582C51.6604 39.9478 52.8679 45.1728 51.1366 49.618C50.5644 51.1046 49.8128 53.0054 49.0756 54.8771C47.9894 57.6261 46.9128 60.3214 46.423 61.5497C49.4248 63.6699 52.6787 65.5367 56.1509 66.8819C56.6164 67.0622 57.0868 67.2377 57.5572 67.4083C55.9957 66.1167 52.5575 62.9583 51.6895 60.2386C51.4955 59.6342 51.35 59.0347 51.2579 58.4546C51.253 58.4449 51.253 58.4449 51.253 58.4449C50.6371 54.7114 51.8737 51.5042 53.7359 50.8316C55.3798 50.2321 59.1187 54.7211 59.5018 58.8007C59.8121 62.0371 59.5115 66.3701 59.3757 68.0176C60.5056 68.3685 62.1059 68.8754 63.3522 69.202Z" fill="#E6DBFE"/>
<path d="M20.8981 30.8404C21.7691 30.5642 22.1381 29.2664 21.7223 27.9417C21.3064 26.617 20.2633 25.767 19.3923 26.0432C18.5213 26.3194 18.1523 27.6172 18.5681 28.9419C18.984 30.2666 20.0271 31.1166 20.8981 30.8404Z" fill="white"/>
<path d="M34.7483 35.2269C35.0151 34.1424 34.6454 33.1176 33.9225 32.938C33.1997 32.7584 32.3975 33.492 32.1307 34.5765C31.864 35.661 32.2337 36.6858 32.9565 36.8654C33.6793 37.045 34.4816 36.3114 34.7483 35.2269Z" fill="white"/>
<path d="M19.9815 56.9583C21.0743 56.6685 21.809 55.8575 21.6225 55.147C21.436 54.4364 20.3989 54.0953 19.3061 54.3851C18.2133 54.6749 17.4786 55.4858 17.6651 56.1964C17.8516 56.9069 18.8887 57.248 19.9815 56.9583Z" fill="white"/>
<path d="M54.0527 58.2798C54.8942 58.1669 55.4396 57.0458 55.271 55.7757C55.1023 54.5056 54.2834 53.5676 53.4419 53.6805C52.6004 53.7934 52.0549 54.9145 52.2236 56.1845C52.3923 57.4546 53.2112 58.3927 54.0527 58.2798Z" fill="white"/>
<path d="M191.099 126.557C191.903 126.214 191.99 124.604 191.294 122.962C190.599 121.32 189.384 120.267 188.581 120.611C187.777 120.955 187.69 122.564 188.385 124.207C189.081 125.849 190.296 126.901 191.099 126.557Z" fill="#E43A56"/>
<path d="M236.155 60.7891C237.839 60.2506 239 59.1673 238.747 58.3695C238.495 57.5717 236.925 57.3615 235.24 57.9C233.556 58.4385 232.395 59.5218 232.647 60.3196C232.9 61.1174 234.47 61.3276 236.155 60.7891Z" fill="#E43A56"/>
<path d="M203.478 121.352C203.97 120.928 203.818 119.938 203.138 119.141C202.459 118.344 201.509 118.041 201.016 118.465C200.524 118.889 200.676 119.879 201.356 120.676C202.036 121.473 202.986 121.775 203.478 121.352Z" fill="#EA5D80"/>
<path d="M231.494 68.2171C231.747 67.4619 230.948 66.51 229.709 66.091C228.47 65.6719 227.261 65.9444 227.008 66.6996C226.755 67.4548 227.554 68.4067 228.793 68.8258C230.032 69.2448 231.241 68.9723 231.494 68.2171Z" fill="#EA5D80"/>
<path d="M167.813 13.7986C168.36 12.4239 168.116 11.0333 167.268 10.6926C166.42 10.3518 165.289 11.19 164.742 12.5647C164.196 13.9393 164.44 15.3299 165.288 15.6707C166.136 16.0114 167.266 15.1732 167.813 13.7986Z" fill="#EA5D80"/>
<path d="M202.597 33.8748C202.597 33.8748 209.982 13.8521 204.609 7.25264C203.62 6.039 199.901 6.61414 194.964 8.78797C193.528 9.42647 191.986 10.1917 190.386 11.0934C189.896 11.3761 189.392 11.6637 188.883 11.9707C188.795 12.0195 188.713 12.0731 188.621 12.1316C188.456 12.2291 188.291 12.3314 188.117 12.4338C187.675 12.7018 187.234 12.9845 186.783 13.2819C186.119 13.7059 185.454 14.1592 184.775 14.632C183.733 15.3631 182.69 16.1381 181.643 16.9618C176.968 20.6173 172.298 25.1941 168.394 30.5945C165.969 33.9479 163.841 37.5059 162.037 41.1176C165.475 43.7594 168.632 46.7277 171.454 49.9787C171.449 49.9884 171.44 49.9933 171.444 49.9982C171.498 50.0615 171.556 50.1298 171.609 50.1931C171.614 50.1882 171.619 50.1736 171.629 50.1639C175.906 55.1208 179.431 60.7162 182.026 66.7649C182.06 66.838 182.084 66.9014 182.113 66.9745C182.215 67.189 182.302 67.4083 182.385 67.6228C182.666 68.2905 182.928 68.9631 183.175 69.6406C183.621 69.1678 184.062 68.6902 184.504 68.193C184.78 67.8908 185.047 67.5838 185.314 67.2767C185.454 67.111 185.595 66.9501 185.726 66.7795C185.959 66.5066 186.182 66.2385 186.41 65.9607C188.96 62.8316 191.317 59.4441 193.398 56.1444C194.096 55.0331 194.77 53.9364 195.4 52.8592C197.432 49.423 199.12 46.2256 200.385 43.7009C202.029 40.4158 202.946 38.2809 202.946 38.2809L197.573 38.9097L195.585 39.1436L196.816 38.2224L202.597 33.8748ZM198.344 14.7246C198.257 11.4248 199.44 8.71486 200.982 8.66124C202.524 8.61738 203.848 11.2494 203.93 14.5491C204.018 17.8488 202.839 20.5588 201.292 20.6124C199.75 20.6563 198.421 18.0243 198.344 14.7246Z" fill="#A895CE"/>
<path d="M188.456 14.2567C187.947 16.6791 187.273 19.1064 186.477 21.5093C186.744 21.2071 189.048 18.6384 189.969 18.0633C191.686 17.0008 194.712 16.3818 195.008 19.043C195.352 22.1916 186.807 21.5678 186.473 21.5483C185.697 23.8781 184.804 26.1932 183.825 28.4646C184.31 28.0405 186.73 25.9739 187.68 25.545C189.523 24.7115 192.617 24.4678 192.588 27.1291C192.554 30.2046 184.46 28.679 183.791 28.5474C183.752 28.6254 183.718 28.7083 183.684 28.7862V28.7911H183.679C182.758 30.9113 181.759 32.9926 180.721 35.0202C181.066 34.7667 183.844 32.7732 184.872 32.4077C186.783 31.7302 189.901 31.7399 189.654 34.3817C189.368 37.4767 181.124 35.1713 180.702 35.0543C179.582 37.2232 178.418 39.3191 177.244 41.3272C177.87 40.8788 180.328 39.1241 181.284 38.7878C183.194 38.1103 186.322 38.1298 186.065 40.7667C185.784 43.774 177.967 41.6684 177.162 41.4491C175.92 43.5644 174.664 45.5774 173.433 47.4539C174.213 46.8983 176.449 45.3239 177.346 45.0071C179.266 44.3248 182.385 44.3491 182.137 46.9811C181.861 49.9397 174.325 47.9657 173.282 47.683C172.831 48.3654 172.385 49.0331 171.944 49.6813C171.832 49.8471 171.726 50.0128 171.614 50.1688C171.609 50.1736 171.604 50.1883 171.595 50.198C171.541 50.1346 171.483 50.0664 171.43 50.003C171.43 49.9982 171.435 49.9884 171.44 49.9835C171.546 49.8373 171.648 49.696 171.75 49.5449C172.036 49.1208 172.322 48.6919 172.613 48.2581C172.041 47.7902 169.495 45.6992 168.855 44.8268C167.594 43.1062 166.614 40.0697 169.223 39.7578C172.055 39.4214 172.623 46.6546 172.715 48.0973C174.039 46.0989 175.411 43.9397 176.759 41.6489C176.192 41.1859 173.641 39.0998 173.001 38.2176C171.74 36.497 170.761 33.4605 173.37 33.1485C176.192 32.8122 176.764 40.0112 176.856 41.4832C178.015 39.5238 179.16 37.4669 180.261 35.3516C179.868 35.0299 177.108 32.783 176.434 31.8667C175.174 30.1461 174.194 27.1096 176.803 26.7976C179.732 26.4516 180.241 34.2111 180.299 35.2639C181.42 33.1095 182.486 30.8967 183.476 28.6254C182.782 28.0551 180.406 26.0958 179.795 25.2574C178.534 23.5369 177.555 20.5003 180.164 20.1884C182.84 19.8716 183.495 26.3346 183.636 28.255C184.552 26.1153 185.396 23.9366 186.138 21.7384C185.493 21.2168 183.049 19.199 182.423 18.346C182.128 17.9415 181.846 17.4589 181.628 16.9618C180.901 15.3485 180.799 13.5158 182.792 13.277C183.631 13.1795 184.271 13.7449 184.761 14.632C185.837 16.5767 186.177 20.0617 186.264 21.363C187.025 19.0674 187.661 16.7571 188.16 14.4419C187.923 14.2567 187.379 13.8034 186.768 13.2819C185.852 12.502 184.795 11.5467 184.412 11.0203C183.151 9.29975 182.171 6.2632 184.78 5.95126C186.924 5.68807 187.772 9.80177 188.102 12.4289C188.175 13.082 188.223 13.6474 188.252 14.0276C188.383 13.394 188.5 12.7555 188.606 12.1267C188.795 11.0105 188.951 9.89438 189.057 8.78797C188.752 7.8619 187.879 5.08368 187.821 4.09425C187.709 2.01302 188.582 -0.955282 190.997 0.287604C193.611 1.64259 190.013 7.7108 189.28 8.89032C189.179 9.91388 189.043 10.9374 188.863 11.9659C188.757 12.6287 188.635 13.3014 188.5 13.9691C188.859 13.3842 189.678 12.0487 190.367 11.0885C190.653 10.6937 190.924 10.3574 191.128 10.1673C192.132 9.23151 193.761 8.40292 194.944 8.78309C195.497 8.96344 195.953 9.40697 196.196 10.2356C197.064 13.1551 189.479 14.1397 188.456 14.2567Z" fill="#E6DBFE"/>
<path d="M223.497 70.7957L217.848 73.686L219.647 69.0606C216.296 67.4229 212.353 66.2726 208.149 65.5951C203.659 64.864 198.863 64.6642 194.154 64.9712C192.68 65.0638 191.21 65.2101 189.76 65.4099C188.626 65.561 187.496 65.7462 186.395 65.9655C184.921 66.2482 183.48 66.5797 182.094 66.9745C182.195 67.1889 182.283 67.4083 182.365 67.6227C182.646 68.2905 182.908 68.9631 183.156 69.6406C186.172 77.7413 187.559 86.5633 186.943 95.6924C186.875 96.7062 186.783 97.7102 186.671 98.7045C187.277 98.7777 187.879 98.8361 188.485 98.8898C190.42 99.0604 192.355 99.1383 194.256 99.1676C195.526 99.1822 196.772 99.1773 197.995 99.1383C199.1 99.114 200.182 99.0652 201.234 99.0116H201.239C208.77 98.5973 214.439 97.5348 214.439 97.5348L209.327 90.5649L217.775 95.3366C217.775 95.3366 236.785 92.1538 239.689 85.1254C242.599 78.1214 223.497 70.7957 223.497 70.7957ZM233.642 87.8452C231.062 89.3707 228.405 89.6583 227.711 88.4934C227.003 87.3431 228.521 85.1742 231.091 83.6535C233.652 82.1376 236.314 81.8355 237.012 82.9955C237.725 84.1506 236.207 86.3293 233.642 87.8452Z" fill="#C7B9E4"/>
<path d="M215.942 107.546C214.72 110.208 208.368 107.073 207.136 106.43C205.409 106.372 203.678 106.225 201.937 106.011C202.801 106.44 205.249 107.693 205.938 108.331C207.403 109.696 208.726 112.396 206.147 113.312C203.232 114.36 201.821 106.961 201.646 105.967C199.173 105.626 196.676 105.124 194.188 104.505C194.513 104.753 197.243 106.84 197.874 107.697C199.037 109.311 199.838 112.24 197.151 112.718C193.984 113.254 194.144 104.831 194.164 104.5C191.744 103.891 189.358 103.16 187.006 102.35C187.457 102.804 189.678 105.041 190.163 105.952C191.118 107.707 191.526 110.719 188.825 110.87C185.706 111.051 186.812 102.994 186.914 102.326L186.148 102.092C186.216 101.946 186.24 101.805 186.24 101.805L187.001 102.048C187.404 101.507 188.252 100.128 189.096 99.1676C189.46 98.7484 189.794 98.3975 190.037 98.2074C191.705 96.8475 194.736 95.6826 195.187 98.2318C195.269 98.6753 195.143 99.0799 194.867 99.4503C193.548 101.181 188.795 101.961 187.205 102.18C189.416 102.945 191.666 103.618 193.931 104.203C194.435 103.535 196.341 101.01 197.18 100.333C197.592 100.006 198.087 99.6843 198.601 99.426C199.794 98.8264 201.118 98.5681 201.84 99.2992H201.845C202.083 99.5429 202.253 99.8841 202.345 100.352C202.81 102.969 196.23 104.047 194.324 104.305C196.695 104.904 199.081 105.372 201.448 105.709C201.894 105.095 203.877 102.477 204.721 101.78C206.399 100.435 209.43 99.2749 209.885 101.805C210.356 104.432 203.795 105.509 201.869 105.767C203.669 106.001 205.463 106.147 207.228 106.206C208.154 105.85 210.928 104.812 211.927 104.685C214.032 104.427 217.077 105.09 215.942 107.546Z" fill="#E6DBFE"/>
<path d="M228.012 56.0614C227.149 57.8746 222.373 58.9225 218.517 57.3092C215.273 55.9591 209.745 53.5903 208.067 52.8738C206.224 54.6967 204.192 56.5196 202 58.2304C203.765 57.5578 207.854 55.6617 209.851 55.5935C214.109 55.457 217.969 58.7422 216.645 60.6577C215.748 61.9493 211.408 63.1093 208.421 62.0809C206.05 61.2572 202.112 59.8534 200.584 59.3124C198.572 60.799 196.424 62.1735 194.173 63.3774C196.739 63.2263 201.03 63.1142 204.052 63.7819C205.448 64.0939 206.874 64.7665 208.144 65.6048C211.035 67.5009 213.11 70.2206 212.247 71.2636C210.991 72.76 205.89 72.6722 202.257 70.3132C199.949 68.8071 196.414 66.4724 194.149 64.9761C193.616 64.6252 193.15 64.3181 192.791 64.0793C191.802 64.5618 190.789 65.0102 189.756 65.4148C189.426 65.5464 189.096 65.678 188.757 65.7949C187.748 66.1556 186.725 66.4919 185.702 66.7892C185.255 66.9257 184.809 67.0476 184.363 67.1597C184.62 67.2035 184.926 67.2425 185.289 67.2864C188.378 67.6471 194.726 67.9931 196.875 70.0695C201.074 74.1345 199.726 76.0743 194.852 75.7234C190.847 75.4407 186.647 70.8396 184.479 68.2027C184.208 67.8713 183.975 67.574 183.767 67.3156C183.767 67.3156 183.136 67.4619 182.36 67.6325C182.273 67.418 182.186 67.1938 182.089 66.9842C182.064 66.9111 182.035 66.8477 182.001 66.7746C183.059 66.4968 184.227 66.1556 185.1 65.907C185.003 64.284 184.8 60.024 185.173 56.8461C185.638 52.8494 189.416 48.5407 191.021 49.1597C192.748 49.8324 193.858 52.7324 193.373 56.154C193.271 56.9046 193.092 57.6796 192.82 58.4595C191.909 61.1012 188.471 64.1231 186.899 65.3514C187.365 65.2003 187.83 65.0395 188.291 64.8737C191.739 63.6308 194.978 61.8859 197.97 59.8729C197.495 58.5959 196.424 55.73 195.366 52.8689C194.721 51.1386 194.086 49.4083 193.591 48.0387C191.986 43.6277 193.286 38.5245 195.274 37.7983C195.701 37.6375 196.22 37.8129 196.782 38.237C197.025 38.4173 197.282 38.6513 197.534 38.9242C198.567 40.0257 199.624 41.7853 200.347 43.7154C200.938 45.28 201.302 46.9615 201.258 48.4823C201.157 52.1768 199.479 57.1581 198.659 59.3953C200.977 57.7868 203.145 56.0176 205.128 54.2142C204.604 52.8445 203.203 49.0964 202.568 46.1476C201.772 42.4725 203.106 39.3726 204.493 39.4116C206.311 39.4604 207.975 42.0534 208.101 46.3669C208.169 48.9989 207.121 51.5432 206.297 53.1224C208.435 51.085 210.361 49.0281 212.019 47.098C211.35 45.6358 209.4 41.2199 208.426 37.7301C207.233 33.4701 208.508 29.7122 210.094 29.644C212.165 29.5514 214.264 32.4417 214.744 37.5059C215.04 40.6643 213.998 43.8178 213.168 45.7333C215.074 43.423 216.582 41.3661 217.615 39.8747C217.649 37.4961 217.872 31.1062 219.23 27.9868C221.98 21.67 229.089 23.9852 225.782 31.3938C223.866 35.6976 220.564 38.6171 218.803 39.9575C217.955 41.2004 216.704 42.9599 215.089 44.9973C216.257 44.3832 218.774 43.1354 220.67 42.843C223.212 42.4433 226.674 44.3685 226.33 45.5481C225.985 46.7178 223.362 47.7901 221.044 47.1614C219.085 46.6399 215.743 45.704 214.749 45.4262C213.057 47.5367 210.996 49.9104 208.62 52.3133C210.715 51.6309 215.452 50.2223 218.852 50.232C223.362 50.232 228.88 54.2483 228.012 56.0614Z" fill="#E6DBFE"/>
<path d="M196.605 46.4822C197.431 46.3535 197.945 45.2421 197.753 43.9998C197.561 42.7575 196.736 41.8548 195.91 41.9835C195.085 42.1123 194.57 43.2237 194.762 44.466C194.954 45.7083 195.779 46.611 196.605 46.4822Z" fill="white"/>
<path d="M225.042 55.8415C225.282 55.0511 224.49 54.1079 223.273 53.7348C222.056 53.3617 220.875 53.7 220.635 54.4904C220.395 55.2808 221.187 56.2241 222.404 56.5972C223.621 56.9703 224.802 56.632 225.042 55.8415Z" fill="white"/>
<path d="M224.327 29.3028C224.741 27.8932 224.323 26.5268 223.393 26.251C222.463 25.9751 221.374 26.8942 220.96 28.3038C220.546 29.7135 220.964 31.0798 221.894 31.3557C222.824 31.6316 223.913 30.7125 224.327 29.3028Z" fill="white"/>
<path d="M194.814 72.0386C195.72 72.3798 196.268 73.1353 196.036 73.7201C195.803 74.305 194.881 74.5 193.975 74.1588C193.068 73.8176 192.52 73.0622 192.753 72.4773C192.98 71.8924 193.907 71.6974 194.814 72.0386Z" fill="white"/>
<path d="M123.058 148.674C155.025 148.674 180.94 122.627 180.94 90.4967C180.94 58.3666 155.025 32.3199 123.058 32.3199C91.0902 32.3199 65.1755 58.3666 65.1755 90.4967C65.1755 122.627 91.0902 148.674 123.058 148.674Z" fill="#EDE7F9"/>
<path d="M150.932 64.9077C150.859 66.287 151.223 67.8272 152.391 69.9523C154.903 74.5242 155.689 77.8775 152.692 80.6168C150.165 82.9222 148.211 83.975 148.211 83.975L114.018 77.975C108.558 76.7663 104.077 73.1205 101.167 68.5437C102.326 72.3065 104.116 73.8808 104.004 73.988C103.805 74.1733 99.635 71.5169 98.0735 65.5218C95.5373 55.7786 100.649 46.0744 103.548 43.1548C106.705 39.9721 105.886 36.1752 107.224 33.4847C107.229 33.4749 107.229 33.4749 107.229 33.4749C107.99 31.4571 109.984 29.9705 112.782 29.8877C115.425 29.8097 117.709 32.2906 117.709 32.2906C120.929 25.8763 127.024 24.7455 130.831 25.1842C133.755 25.5205 137.935 27.3336 139.783 29.449C141.349 31.2378 142.445 33.5481 142.756 36.3019C143.347 41.561 144.089 43.7884 147.789 46.4594C151.615 49.2133 153.342 53.5414 152.828 57.699C152.731 58.5178 152.551 59.322 152.275 60.1116C151.654 61.9199 151.009 63.3041 150.932 64.9077Z" fill="#C66F44"/>
<path d="M109.688 43.574C109.688 43.574 106.531 46.8104 106.065 49.9639C105.386 54.5211 106.798 54.9744 105.26 59.2197C103.573 63.8696 105.866 67.1352 110.41 69.6892C113.965 71.6876 113.31 74.9191 112.951 77.4731L117.631 77.5706L120.182 69.2896L109.688 43.574Z" fill="#9E4E26"/>
<path d="M152.832 57.699C150.238 43.1256 139.764 49.6032 141.475 42.8283C143.594 34.4449 139.783 29.4441 139.783 29.4441C141.349 31.2329 142.445 33.5432 142.756 36.297C143.347 41.5561 144.089 43.7836 147.789 46.4546C151.615 49.2084 153.346 53.5415 152.832 57.699Z" fill="#9E4E26"/>
<path d="M107.525 32.8315C107.525 32.8315 105.857 35.6975 106.308 40.6495C106.599 43.8908 102.87 43.8859 99.2908 50.3343C100.212 47.7657 101.686 45.1239 103.694 42.4871C106.23 39.1581 104.984 36.1703 107.525 32.8315Z" fill="#9E4E26"/>
<path d="M146.577 142.118C146.577 149.443 136.073 155.088 122.994 155.088C109.916 155.088 99.2034 149.448 99.2034 142.118C99.2034 134.787 109.809 128.851 122.888 128.851C135.966 128.851 146.577 134.792 146.577 142.118Z" fill="#8C77B7"/>
<path d="M142.368 100.981C143.371 102.677 148.934 113.039 150.907 118.191L159.108 119.785C159.428 119.848 159.723 119.585 159.68 119.258C157.958 106.878 148.376 84.6867 146.325 81.8939C144.603 79.5495 134.332 76.586 131.437 75.9037C130.879 75.7721 129.934 75.3675 129.551 74.9532C126.704 71.8387 127.849 64.0548 127.849 64.0548L117.912 64.1133C117.912 64.1133 118.965 70.7323 116.457 74.2806C115.909 75.0556 114.59 75.4163 113.674 75.7379C110.342 76.9077 102.351 78.3602 99.7707 81.4698C98.2092 83.3512 87.0411 116.934 88.4911 120.228L97.5303 117.309C99.7513 111.587 104.155 102.833 104.882 100.225C105.769 101.376 108.475 110.651 108.204 115.31C107.37 129.689 103.878 133.359 103.878 133.359C103.878 133.359 110.308 136.688 123.717 136.673C139.196 136.654 143.405 135.489 143.405 135.489C143.405 135.489 139.492 130.011 139.23 115.817C139.143 110.748 142.149 102.657 142.368 100.981Z" fill="#FF9671"/>
<path d="M146.291 81.1774C142.741 77.6535 130.904 75.7185 130.637 75.6405C130.637 75.6405 130.191 81.5137 122.534 81.5235C116.399 81.5332 114.823 75.3627 114.823 75.3627C114.823 75.3627 103.035 77.0199 99.3344 81.4796C94.8875 86.846 90.5377 101.673 90.6346 102.219C90.7316 102.76 93.6219 104.544 97.0358 105.465C100.45 106.386 103.214 106.683 103.549 106.498C103.66 106.435 104.591 104.651 105.357 102.984C106.885 104.987 108.286 114.536 108.214 115.798C107.375 130.22 103.607 132.73 103.607 132.73C103.607 132.73 110.105 137.107 123.552 137.093C139.075 137.073 143.42 135.499 143.42 135.499C143.42 135.499 139.153 130.664 138.891 116.427C138.862 114.721 140.811 106.181 141.917 102.823C142.688 104.441 143.279 106.284 143.386 106.347C143.721 106.532 146.044 106.669 149.458 105.748C152.872 104.826 156.678 102.331 156.775 101.79C156.863 101.249 151.169 86.0222 146.291 81.1774Z" fill="#EA5D80"/>
<path d="M141.96 103.242C142.697 104.67 143.255 106.318 143.366 106.381C143.541 106.479 144.496 106.62 146.625 106.332C146.625 106.332 143.429 101.02 141.247 95.9457C141.039 95.4583 140.699 95.5168 140.724 96.0383C141.305 108.389 130.632 107.429 130.588 107.946C130.54 108.555 136.102 109.154 138.25 107.77C138.26 107.765 138.27 107.765 138.279 107.76C139.084 107.483 138.658 113.429 138.527 117.314C138.231 126.136 132.756 134.963 123.358 134.631C113.174 134.271 109.722 122.86 109.295 116.246C109.111 113.38 108.965 107.522 108.965 107.522C112.263 109.159 116.777 108.272 116.753 107.814C116.719 107.171 107.685 107.536 106.632 96.1602C106.574 95.5217 106.259 95.5509 106.051 96.1602C103.999 102.253 101.172 106.347 101.172 106.347C102.409 106.561 103.369 106.586 103.539 106.488C103.65 106.425 104.576 104.646 105.343 102.979C105.43 103.33 105.367 102.945 105.43 103.33C108.48 121.744 101.303 133.788 101.303 133.788C101.303 133.788 110.24 137.892 123.688 137.872C139.211 137.853 145.316 135.279 145.316 135.279C145.316 135.279 138.667 122.836 141.96 103.242Z" fill="#D14A6C"/>
<path d="M128.033 71.7363C127.485 68.578 127.839 66.6478 127.839 66.6478L118.126 66.7112C118.126 66.7112 118.266 68.6949 117.66 71.556C121.942 74.7339 123.732 74.807 128.033 71.7363Z" fill="#F48260"/>
<path d="M102.273 106.503L101.182 106.352C98.2045 112.878 93.0012 116.251 93.0012 116.251C93.0012 116.251 97.3025 114.691 98.2675 115.505C99.2519 113.005 101.357 109.34 102.273 106.503Z" fill="#F48260"/>
<path d="M145.321 106.469L146.625 106.332C150.776 114.35 154.389 116.051 154.389 116.051C154.389 116.051 151.882 115.003 149.797 115.554C149.797 115.549 146.858 109.535 145.321 106.469Z" fill="#F48260"/>
<path d="M88.7045 120.54C88.3651 120.131 88.399 119.565 88.7967 119.215C90.5327 117.689 98.2627 115.51 98.2627 115.51C103.835 116.968 114.178 123.757 119.857 125.931C120.652 126.233 121.588 126.662 122.092 127.267C122.946 128.29 123.659 129.64 122.228 129.884C119.964 130.269 101.512 127.096 98.2045 126.355C94.2862 125.473 89.8344 121.895 88.7045 120.54Z" fill="#FF9671"/>
<path d="M105.357 126.433C98.1413 125.424 94.577 124.089 88.3601 119.341C88.3601 119.341 88.3601 120.199 88.6074 120.506C89.7179 121.876 94.2618 125.468 98.1849 126.35C101.492 127.091 119.944 130.264 122.209 129.879C122.665 129.801 122.931 129.601 123.057 129.338C118.135 129.206 112.122 127.379 105.357 126.433Z" fill="#F48260"/>
<path d="M159.67 119.205L149.928 115.501C143.948 117.845 133.498 122.607 128.479 125.259C127.732 125.653 126.442 126.404 125.938 127.008C125.089 128.032 124.667 129.441 126.098 129.684C128.363 130.069 146.81 126.862 150.112 126.116C154.04 125.224 159.791 120.594 159.67 119.205Z" fill="#FF9671"/>
<path d="M142.964 126.204C150.18 125.185 153.366 123.338 159.573 118.576C159.695 118.961 159.758 119.985 159.564 120.214C158.439 121.574 154.06 125.219 150.136 126.106C146.829 126.852 128.387 130.059 126.122 129.674C125.662 129.596 125.4 129.396 125.274 129.133C130.196 128.997 136.204 127.164 142.964 126.204Z" fill="#F48260"/>
<path d="M131.388 127.725C130.845 126.082 129.075 125.288 127.596 126.024C126.864 126.389 126.112 126.852 125.681 127.374C124.629 128.641 123.887 132.726 124.493 136.279C125.099 139.832 129.289 136.942 131.078 132.784C131.936 130.791 131.825 129.041 131.388 127.725Z" fill="#FF9671"/>
<path d="M130.617 131.273C131.267 129.757 131.359 128.388 131.175 127.237C131.257 127.388 131.33 127.554 131.388 127.725C131.825 129.041 131.932 130.79 131.078 132.784C129.289 136.946 125.099 139.837 124.493 136.279C124.468 136.127 124.449 135.972 124.425 135.82C125.661 137.565 129.056 134.904 130.617 131.273Z" fill="#F48260"/>
<path d="M116.811 128.139C117.35 126.496 119.12 125.697 120.599 126.433C121.331 126.794 122.262 127.491 122.262 127.491C123.314 128.758 124.624 133.189 123.722 136.683C123.043 139.325 118.926 137.356 117.131 133.198C116.268 131.205 116.375 129.455 116.811 128.139Z" fill="#FF9671"/>
<path d="M117.587 131.687C116.933 130.172 116.84 128.802 117.02 127.652C116.937 127.808 116.865 127.968 116.807 128.139C116.375 129.455 116.268 131.205 117.127 133.198C118.921 137.356 122.893 139.325 123.717 136.683C123.761 136.537 123.761 136.376 123.785 136.225C122.553 137.97 119.154 135.319 117.587 131.687Z" fill="#F48260"/>
<path d="M122.65 81.4113C116.656 81.4113 114.867 75.3334 114.867 75.3334C114.867 75.3334 113.931 75.4309 112.234 75.8305C113.039 80.149 117.088 83.7899 122.747 83.7899C128.275 83.7899 132.543 80.3732 133.503 76.2156C131.903 75.8451 130.686 75.6502 130.608 75.6258C130.603 75.6258 129.895 81.4113 122.65 81.4113Z" fill="white"/>
<path d="M141.388 96.4088C139.991 102.696 134.085 103.666 134.066 103.666C134.066 103.666 136.645 100.435 134.517 95.7898C133.658 93.9279 133.775 91.988 134.23 90.3406C134.235 90.3162 134.235 90.3065 134.235 90.3065C131.961 92.8215 131.704 95.1708 131.995 96.633C132.053 96.9547 131.961 97.0424 131.752 96.6915C131.02 95.4437 130.104 93.6891 130.467 91.9198C130.574 91.369 130.802 90.8231 131.204 90.287C135.132 84.945 134.39 83.4828 129.895 80.5876C125.72 77.8971 127.95 71.5754 127.95 71.5754L153.065 80.7679C153.065 80.7679 148.318 82.313 144.303 86.6704C140.874 90.3796 142.179 92.8361 141.388 96.4088Z" fill="#C66F44"/>
<path d="M141.713 93.5719C141.703 93.4696 140.685 88.5468 143.488 85.559C146.601 82.2447 147.915 81.9717 150.291 80.2268C152.74 78.4283 153.977 75.9962 151.872 71.0636C150.296 67.3642 150.936 64.9126 150.936 64.9126C150.864 66.292 151.329 67.8809 152.721 69.8646C156.6 75.4015 157.386 81.0749 150.034 83.7751C143.449 86.1829 141.965 90.8766 141.713 93.5719Z" fill="#9E4E26"/>
<path d="M134.109 103.657C134.094 103.666 134.08 103.666 134.065 103.671C134.065 103.671 136.645 100.44 134.516 95.7947C133.658 93.9328 133.774 91.9929 134.23 90.3455C134.114 92.8069 134.138 93.806 136.757 97.2764C138.832 100.02 135.317 103.354 134.109 103.657Z" fill="#9E4E26"/>
<path d="M134.783 61.9883C134.783 61.9883 128.673 65.1662 127.679 70.2839C127.679 70.2839 125.424 78.1116 129.599 80.7972C134.095 83.6924 135.094 84.7842 131.166 90.131C130.768 90.672 130.574 91.3641 130.462 91.9197C132.024 88.4884 135.758 88.5177 136.282 84.7793C136.907 80.3049 129.376 78.7208 133.047 72.3407C134.41 69.9768 134.745 68.1783 134.745 66.9647C135.171 67.8956 135.356 68.8997 135.113 69.894C135.089 70.0304 135.04 70.1572 135.002 70.2936L134.837 70.7615C134.725 71.0832 134.623 71.4049 134.531 71.7364C134.352 72.3944 134.211 73.0767 134.172 73.764C134.066 75.1531 134.517 76.5422 135.326 77.556C134.745 76.3764 134.628 75.0604 134.968 73.8858C135.128 73.2912 135.37 72.7258 135.656 72.1701C135.797 71.8923 135.952 71.6243 136.112 71.3513L136.359 70.9419C136.447 70.7762 136.641 70.4106 136.713 70.2352C137.373 68.8558 138.614 65.946 134.783 61.9883Z" fill="#9E4E26"/>
<path d="M142.203 51.2068C143.512 51.8599 144.647 52.8981 145.49 54.1946C146.31 55.5008 146.771 57.158 146.538 58.8055C146.334 60.4431 145.636 61.8566 145.035 63.1434C144.428 64.4204 143.876 65.6681 144.002 66.6039C144.118 67.6031 144.865 68.7534 145.597 70.084C145.946 70.7615 146.31 71.5268 146.46 72.4041C146.625 73.2717 146.538 74.2075 146.257 75.0068C145.99 75.7916 145.568 76.5714 144.981 77.1563C144.404 77.7509 143.745 78.1847 143.095 78.5454C141.81 79.257 140.457 79.6957 139.759 81.0263C139.841 80.2952 140.273 79.5933 140.806 79.0572C141.33 78.5064 141.931 78.0677 142.455 77.6047C143.556 76.7176 144.298 75.7233 144.506 74.5243C144.734 73.3448 144.385 72.3456 143.657 71.1904C142.988 70.0353 141.95 68.7729 141.689 66.8672C141.592 65.8923 141.8 64.9906 142.091 64.2352C142.382 63.4699 142.731 62.7973 143.08 62.1588C143.769 60.8867 144.448 59.712 144.758 58.4935C145.049 57.2994 144.962 55.9687 144.472 54.7161C144.011 53.4489 143.197 52.2645 142.203 51.2068Z" fill="#9E4E26"/>
<path d="M136.471 55.5057C136.228 55.5301 136.01 55.5885 135.801 55.6714C135.661 46.708 130.016 39.4993 123.067 39.4993C116.103 39.4993 110.449 46.7421 110.333 55.7348C110.085 55.6129 109.819 55.5349 109.518 55.5057C108.087 55.3692 107.355 56.6413 107.53 58.7518C107.758 61.4862 110.119 63.9427 111.05 63.8355C111.545 63.777 111.686 63.4358 111.686 63.4358C113.751 69.309 120.521 72.9987 123.111 72.9987C126.195 72.9987 132.213 69.3139 134.405 63.543C134.405 63.543 134.604 63.8647 135.001 63.8306C135.927 63.7477 138.212 61.4813 138.435 58.7518C138.614 56.6365 137.891 55.3643 136.471 55.5057Z" fill="#FF9671"/>
<path d="M118 64.8541C118 64.8541 118.349 67.4569 120.424 68.695C122.5 69.933 124.692 69.5285 126.011 68.8217C128.173 67.6568 128.634 65.1807 128.634 65.1807C122.121 71.3173 118 64.8541 118 64.8541Z" fill="#F07163"/>
<path d="M117.791 64.6884C117.738 64.5909 117.849 64.4934 117.932 64.5568C118.548 65.0345 119.983 65.7071 123.145 65.5999C126.704 65.478 128.251 64.9321 128.819 64.6543C128.906 64.6104 128.988 64.7128 128.94 64.7956C128.508 65.556 127.083 67.5105 123.664 68.0954C120.332 68.6705 118.455 65.9215 117.791 64.6884Z" fill="#370700"/>
<path d="M123.31 65.6486C121.481 65.7559 118.96 65.1612 118.96 65.1612C118.96 65.1612 119.299 66.1994 119.828 66.5357C119.983 66.6332 120.187 66.7356 120.444 66.8282C119.954 66.8867 119.585 66.95 119.585 66.95C120.933 68.6316 125.148 68.7047 126.908 66.8818C126.908 66.8818 126.573 66.7404 125.933 66.6429C126.316 66.526 126.597 66.3944 126.733 66.2628C127.107 65.8972 127.441 65.0637 127.441 65.0637C127.441 65.0637 125.657 65.517 123.31 65.6486Z" fill="white"/>
<path d="M118.32 64.8152C119.125 65.3805 120.788 65.8533 123.363 65.7997C126.302 65.7412 127.718 65.1174 128.508 64.7908C128.508 64.7908 125.181 64.6153 124.541 64.7226C123.741 64.8542 123.285 64.9127 122.272 64.7664C121.263 64.6153 118.32 64.8152 118.32 64.8152Z" fill="#F07163"/>
<path d="M116.729 54.1604C115.25 54.604 114.425 56.3294 114.891 58.0207C114.959 58.2644 115.177 55.8322 117.039 55.3546C119.071 54.833 120.327 56.7144 120.25 56.4171C119.784 54.7307 118.208 53.7217 116.729 54.1604Z" fill="#3F1714"/>
<path d="M129.861 54.1263C131.316 54.487 132.179 56.1588 131.781 57.8696C131.723 58.1182 131.427 55.7055 129.599 55.3351C127.601 54.9257 126.437 56.8704 126.505 56.5731C126.903 54.8574 128.401 53.7657 129.861 54.1263Z" fill="#3F1714"/>
<path d="M121.748 61.6957C121.656 61.5739 121.792 61.4081 121.923 61.4569C122.243 61.5738 122.825 61.7444 123.397 61.7152C124.032 61.6811 124.473 61.5544 124.803 61.4374C124.929 61.3935 125.051 61.5202 124.963 61.6323C124.73 61.9345 124.27 62.4366 123.397 62.4463C122.592 62.4561 121.966 61.9882 121.748 61.6957Z" fill="#F48260"/>
<path d="M119.222 50.9533C119.28 50.7145 118.887 50.4172 117.607 50.6073C116.836 50.7242 115.653 51.3578 115.124 52.5568C115.08 52.6494 115.158 52.6933 115.231 52.6153C116.482 51.275 117.951 51.2457 118.465 51.2019C119.008 51.158 119.193 51.0654 119.222 50.9533Z" fill="#7A3325"/>
<path d="M127.446 51.0069C127.397 50.768 127.776 50.4756 128.988 50.6803C129.72 50.8022 130.831 51.4553 131.311 52.6592C131.35 52.7518 131.277 52.7956 131.209 52.7176C130.045 51.3627 128.649 51.3139 128.164 51.2652C127.645 51.2165 127.47 51.1238 127.446 51.0069Z" fill="#7A3325"/>
<path d="M138.406 47.3125C132.504 44.0566 136.519 41.0493 133.58 37.9543C131.476 35.7317 128.193 35.3174 125.521 36.1801C123.717 36.7602 122.199 37.9397 121.515 39.5335C120.414 38.8024 117.165 37.1939 112.709 39.8113C107.976 42.5895 107.195 48.302 109.014 52.9713C110.711 57.3239 108.786 59.3417 108.786 59.3417C110.347 58.7569 114.008 56.9583 113.315 51.358C112.588 45.4896 114.639 43.6423 116.511 42.107C118.353 40.596 120.725 40.0502 121.593 39.8942C122.558 39.8601 126.384 39.8601 128.11 41.9852C130.021 44.3588 127.868 47.9949 130.651 48.9063C134.012 50.0128 135.205 52.7081 133.663 55.0038C132.678 56.4807 132.809 58.3962 133.716 59.7804C134.361 60.765 135.161 61.2767 135.161 61.2767C135.161 61.2767 134.322 58.0257 136.713 56.4368C139.118 54.8381 143.963 50.3783 138.406 47.3125Z" fill="#C66F44"/>
<path d="M133.935 46.6447C131.209 45.6504 131.103 43.9152 131.321 39.8649C131.539 35.8096 128.183 33.6163 125.012 34.0598C122.16 34.4546 120.303 36.9989 119.954 39.2361C117.995 38.6805 114.988 38.5147 112.709 41.5025C110.027 45.0265 113.548 49.6617 113.291 54.0922C113.291 54.0922 113.805 51.9623 113.873 49.1499C113.97 45.1532 114.799 43.5155 116.884 41.9071C117.874 41.1419 118.989 40.6934 119.925 40.4302C120.075 40.3961 125.128 38.8803 127.791 42.1118C129.284 43.9249 126.908 48.5943 129.759 49.2523C133.576 50.1296 135.089 52.5374 133.547 54.8282C132.208 56.812 132.926 58.6251 133.712 59.7754C133.712 59.7754 133.27 58.4545 133.62 57.2068C134.395 54.4529 138.484 53.6974 138.677 51.2019C138.862 48.9062 136.937 47.7413 133.935 46.6447Z" fill="#9E4E26"/>
<path d="M147.067 136.264H100.746C100.115 136.264 99.5381 135.791 99.4557 135.211L94.8051 101.882C94.6887 101.054 95.2173 100.371 95.9738 100.371H151.843C152.6 100.371 153.128 101.054 153.012 101.882L148.361 135.211C148.274 135.796 147.697 136.264 147.067 136.264Z" fill="#E7E0F0"/>
<path d="M147.542 137.941H100.27C99.9405 137.941 99.6689 137.673 99.6689 137.346V136.854C99.6689 136.527 99.9405 136.259 100.27 136.259H147.542C147.872 136.259 148.143 136.527 148.143 136.854V137.346C148.143 137.677 147.876 137.941 147.542 137.941Z" fill="#C7BDD6"/>
<path d="M150.156 101.517C150.156 101.517 144.055 126.901 119.318 129.533C112.461 130.264 105.915 128.568 100.542 125.244C100.251 125.063 99.8774 125.302 99.9259 125.639L101.114 134.134C101.192 134.68 101.735 135.119 102.321 135.119H145.689C146.276 135.119 146.824 134.675 146.897 134.134L151.251 102.93C151.358 102.155 150.864 101.517 150.156 101.517Z" fill="#C7BDD6"/>
<path d="M123.906 122.017C126.876 122.017 129.284 120.847 129.284 119.405C129.284 117.962 126.876 116.792 123.906 116.792C120.936 116.792 118.528 117.962 118.528 119.405C118.528 120.847 120.936 122.017 123.906 122.017Z" fill="#C7BDD6"/>
<path d="M98.6652 102.574L132.776 100.376H95.9641C95.2076 100.376 94.679 101.058 94.7954 101.887L98.5439 128.753L97.3413 104.041C97.3025 103.271 97.8941 102.623 98.6652 102.574Z" fill="white"/>
<path d="M80.6158 131.965C80.6158 131.965 82.701 125.673 94.8632 129.011C107.025 132.35 120.046 143.638 129.114 148.59C139.012 153.996 140.825 154.274 140.825 154.274C140.825 154.274 144.559 153.698 149.229 152.772C156.76 151.276 158.201 154.006 158.225 155.19C158.254 156.867 157.575 158.577 152.1 159.489C144.681 160.722 139.215 159.347 139.215 159.347C136.621 158.68 99.4362 152.641 93.195 149.867C85.4846 146.446 76.843 139.422 80.6158 131.965Z" fill="#FF8F6A"/>
<path d="M139.254 154.283C139.254 154.283 150.301 150.404 153.71 150.613C156.707 150.799 160.048 153.854 159.558 156.282C159.069 158.709 155.824 161.165 150.534 160.932C146.077 160.737 137.572 159.362 137.572 159.362C137.572 159.362 139.705 157.681 139.254 154.283Z" fill="#D2CDE0"/>
<path d="M137.576 159.363C137.576 159.363 139.705 157.681 139.254 154.284C139.254 154.284 148.332 151.062 152.571 150.623C155.335 151.223 158.084 153.957 157.638 156.175C157.178 158.466 154.253 160.781 149.477 160.839C144.86 160.508 137.576 159.363 137.576 159.363Z" fill="#F5F2F9"/>
<path d="M139.317 155.268C139.317 155.268 146.591 153.484 149.481 153.513C152.372 153.543 153.472 155.088 153.434 156.111C153.395 157.135 151.601 158.743 149.316 158.734C147.032 158.724 139.007 157.13 139.007 157.13C139.007 157.13 139.283 156.238 139.317 155.268Z" fill="#D2CDE0"/>
<path d="M149.646 152.792C149.646 152.792 149.777 153.24 149.889 153.869C149.947 154.186 149.996 154.547 150.025 154.927C150.049 155.307 150.054 155.712 150.015 156.106C149.996 156.506 149.908 156.901 149.84 157.281C149.739 157.651 149.656 158.007 149.549 158.314C149.462 158.626 149.355 158.88 149.297 159.07C149.239 159.26 149.21 159.377 149.21 159.377C149.21 159.377 149.302 159.309 149.457 159.182C149.608 159.05 149.84 158.865 150.044 158.582C150.272 158.314 150.476 157.958 150.66 157.549C150.83 157.135 150.946 156.667 150.99 156.184C151.014 155.702 150.99 155.219 150.873 154.785C150.767 154.352 150.602 153.967 150.413 153.664C150.049 153.055 149.646 152.792 149.646 152.792Z" fill="white"/>
<path d="M146.242 152.656C146.242 152.656 146.373 153.104 146.485 153.733C146.543 154.049 146.591 154.41 146.62 154.79C146.645 155.171 146.649 155.575 146.611 155.97C146.591 156.37 146.504 156.764 146.436 157.145C146.334 157.515 146.252 157.871 146.145 158.178C146.058 158.49 145.951 158.743 145.893 158.933C145.835 159.123 145.806 159.24 145.806 159.24C145.806 159.24 145.898 159.172 146.053 159.045C146.203 158.914 146.436 158.729 146.64 158.446C146.868 158.178 147.071 157.822 147.255 157.413C147.425 156.998 147.542 156.53 147.585 156.048C147.609 155.565 147.585 155.083 147.469 154.649C147.362 154.215 147.197 153.83 147.008 153.528C146.645 152.919 146.242 152.656 146.242 152.656Z" fill="white"/>
<path d="M143.022 153.192C143.022 153.192 143.158 153.567 143.26 154.113C143.318 154.386 143.367 154.698 143.396 155.029C143.42 155.361 143.43 155.712 143.396 156.062C143.376 156.413 143.304 156.755 143.236 157.086C143.144 157.408 143.066 157.715 142.964 157.978C142.882 158.246 142.794 158.465 142.731 158.621C142.673 158.782 142.644 158.88 142.644 158.88C142.644 158.88 142.722 158.821 142.848 158.704C142.964 158.582 143.173 158.426 143.333 158.178C143.522 157.944 143.691 157.637 143.847 157.286C143.987 156.93 144.084 156.53 144.123 156.121C144.186 155.297 143.963 154.478 143.653 153.962C143.347 153.435 143.022 153.192 143.022 153.192Z" fill="white"/>
<path d="M80.364 131.682C80.364 131.682 83.1767 125.239 95.3244 128.646C107.467 132.053 140.385 153.977 140.424 154.167C140.787 155.863 140.244 158.539 139.502 159.718C139.429 159.835 98.491 153.055 92.7882 150.482C85.097 147.011 76.5476 139.12 80.364 131.682Z" fill="#A895CE"/>
<path d="M133.464 150.184C133.464 150.184 135.074 152.431 133.115 154.518C131.971 155.741 130.176 156.56 124.857 155.887C112.466 154.318 101.633 152.587 93.2968 149.015C87.7346 146.631 80.9407 140.67 79.4228 135.426C79.3792 141.63 86.2992 147.767 92.7101 150.638C98.9512 153.431 139.696 159.942 139.773 159.83C140.952 158.11 141.233 155.088 140.811 154.181C140.733 154.011 134.764 150.784 133.464 150.184Z" fill="#8C77B7"/>
<path d="M165.63 133.257C165.63 133.257 163.797 126.74 151.494 129.713C139.191 132.687 125.715 143.77 116.438 148.513C106.318 153.684 104.785 154.054 104.785 154.054C104.785 154.054 101.822 153.543 96.4588 152.032C92.6569 150.959 89.4563 152.578 88.6804 153.509C87.5941 154.82 89.7909 158.48 93.8595 159.474C100.353 161.063 104.751 159.889 104.751 159.889C107.37 159.299 145.976 153.733 152.338 151.12C160.184 147.903 169.107 141.031 165.63 133.257Z" fill="#FF8F6A"/>
<path d="M106.899 154.376C106.899 154.376 95.6538 150.209 92.1526 150.37C89.0781 150.511 85.606 153.582 86.0618 156.077C86.5176 158.573 89.8055 161.146 95.2271 160.995C99.7951 160.869 108.534 159.611 108.534 159.611C108.534 159.611 106.381 157.847 106.899 154.376Z" fill="#D2CDE0"/>
<path d="M108.534 159.606C108.534 159.606 106.381 157.847 106.9 154.376C106.9 154.376 97.6566 150.92 93.3212 150.399C90.4795 150.964 87.6135 153.718 88.0354 155.999C88.467 158.353 91.4251 160.776 96.3182 160.917C101.051 160.649 108.534 159.606 108.534 159.606Z" fill="#F5F2F9"/>
<path d="M106.817 155.38C106.817 155.38 99.3975 153.426 96.4346 153.411C93.4716 153.396 92.3174 154.956 92.3417 156.004C92.3659 157.052 94.1747 158.729 96.5121 158.763C98.8495 158.792 107.098 157.296 107.098 157.296C107.098 157.296 106.836 156.37 106.817 155.38Z" fill="#D2CDE0"/>
<path d="M96.2842 152.665C96.2842 152.665 96.1436 153.123 96.0175 153.767C95.9545 154.089 95.8963 154.459 95.8623 154.849C95.8284 155.239 95.8187 155.648 95.8526 156.058C95.8672 156.467 95.9448 156.872 96.0127 157.262C96.1096 157.642 96.1921 158.012 96.2939 158.324C96.3763 158.646 96.483 158.909 96.5364 159.104C96.5946 159.299 96.6237 159.421 96.6237 159.421C96.6237 159.421 96.5267 159.352 96.3715 159.216C96.2212 159.075 95.9836 158.885 95.7847 158.592C95.5568 158.314 95.3532 157.944 95.1689 157.525C95.004 157.096 94.8925 156.618 94.8537 156.121C94.8343 155.629 94.8682 155.132 94.9992 154.688C95.1155 154.244 95.2901 153.855 95.4889 153.547C95.8623 152.928 96.2842 152.665 96.2842 152.665Z" fill="white"/>
<path d="M99.7708 152.587C99.7708 152.587 99.6302 153.046 99.5041 153.689C99.441 154.011 99.3828 154.381 99.3489 154.771C99.315 155.161 99.3053 155.57 99.3392 155.98C99.3538 156.389 99.4313 156.794 99.4992 157.184C99.5962 157.564 99.6787 157.934 99.7805 158.246C99.8629 158.568 99.9696 158.831 100.023 159.026C100.081 159.221 100.11 159.343 100.11 159.343C100.11 159.343 100.013 159.275 99.8581 159.138C99.7077 158.997 99.4701 158.807 99.2713 158.514C99.0434 158.236 98.8397 157.866 98.6555 157.447C98.4906 157.018 98.3791 156.54 98.3403 156.043C98.3209 155.551 98.3548 155.054 98.4857 154.61C98.6021 154.167 98.7767 153.777 98.9755 153.47C99.3538 152.851 99.7708 152.587 99.7708 152.587Z" fill="white"/>
<path d="M103.059 153.192C103.059 153.192 102.913 153.572 102.797 154.128C102.734 154.405 102.681 154.722 102.647 155.063C102.613 155.405 102.603 155.76 102.632 156.121C102.647 156.482 102.714 156.833 102.777 157.169C102.865 157.5 102.942 157.817 103.039 158.085C103.117 158.363 103.209 158.587 103.267 158.753C103.326 158.919 103.35 159.016 103.35 159.016C103.35 159.016 103.272 158.953 103.141 158.831C103.025 158.704 102.816 158.543 102.651 158.285C102.462 158.046 102.293 157.725 102.142 157.364C102.006 156.998 101.909 156.589 101.88 156.165C101.827 155.317 102.074 154.483 102.399 153.962C102.719 153.431 103.059 153.192 103.059 153.192Z" fill="white"/>
<path d="M165.897 132.979C165.897 132.979 163.336 126.282 151.048 129.328C138.76 132.375 125.341 143.536 116.094 148.332C110.837 151.057 106.846 152.636 105.037 153.353C104.858 153.426 104.79 153.655 104.906 153.816C105.483 154.654 105.799 155.102 106.09 156.545C106.279 157.486 106.259 158.743 105.721 159.621C105.648 159.738 105.745 159.894 105.881 159.869C113.417 158.592 146.911 154.196 152.716 151.769C160.548 148.498 169.417 140.729 165.897 132.979Z" fill="#A895CE"/>
<path d="M125.235 142.795C125.235 142.795 109.174 151.9 109.406 154.318C109.6 156.355 111.734 157.232 117.083 156.735C129.541 155.58 148.376 151.237 152.076 149.687C157.696 147.338 164.956 142.157 166.687 136.844C166.478 143.2 159.238 149.044 152.716 151.769C146.906 154.196 105.76 160.108 105.731 159.972C105.474 158.782 104.756 154.751 104.78 153.494C104.775 153.294 125.235 142.795 125.235 142.795Z" fill="#8C77B7"/>
</g>
<defs>
<clipPath id="clip0">
<rect width="240" height="161" fill="white"/>
</clipPath>
</defs>
</svg>
