<svg width="10" height="17" viewBox="0 0 10 17" fill="none" xmlns="http://www.w3.org/2000/svg">
<path fill-rule="evenodd" clip-rule="evenodd" d="M8.06752 8.05138C8.51445 7.71068 8.89365 7.59825 9.20514 7.71409C9.51664 7.82993 9.72656 8.00368 9.8349 8.23536C10.0516 8.65783 10.055 9.00194 9.84506 9.26768C9.63514 9.53343 9.26609 9.83665 8.73791 10.1774C8.29098 10.4635 7.79328 10.6714 7.24478 10.8008C6.69628 10.9303 6.21888 11.0155 5.81259 11.0564L8.96137 14.2249C9.15097 14.4157 9.24578 14.6439 9.24578 14.9097C9.24578 15.1754 9.15097 15.4037 8.96137 15.5945L8.8598 15.7171C8.67019 15.9079 8.43996 16.0033 8.1691 16.0033C7.89823 16.0033 7.668 15.9079 7.4784 15.7171C7.1669 15.3901 6.79447 15.0085 6.36109 14.5724C5.9277 14.1363 5.48078 13.6798 5.02032 13.2028L2.54192 15.7171C2.35231 15.9079 2.12547 16.0033 1.86138 16.0033C1.59728 16.0033 1.37044 15.9079 1.18083 15.7171L1.05895 15.5945C0.869341 15.4037 0.77454 15.1754 0.77454 14.9097C0.77454 14.6439 0.869341 14.4157 1.05895 14.2249C1.37044 13.9114 1.74287 13.5333 2.17626 13.0903C2.60964 12.6474 3.06333 12.1943 3.53734 11.7309L4.20773 11.0564C3.80143 11.0155 3.32065 10.9303 2.76538 10.8008C2.21011 10.6714 1.70902 10.4635 1.26209 10.1774C0.733908 9.83665 0.36486 9.53343 0.154941 9.26768C-0.0549791 9.00194 -0.0515931 8.65783 0.165098 8.23536C0.273444 8.00368 0.48336 7.82993 0.794854 7.71409C1.10635 7.59825 1.48555 7.71068 1.93248 8.05138C2.51484 8.52837 3.17167 8.80433 3.90301 8.87928C4.63434 8.95424 5 8.99172 5 8.99172C5 8.99172 5.36566 8.95424 6.09699 8.87928C6.82833 8.80433 7.48516 8.52837 8.06752 8.05138ZM5 0C5.55395 0 6.07246 0.106023 6.55556 0.318072C7.03865 0.530122 7.46055 0.816063 7.82126 1.1759C8.18197 1.53574 8.4686 1.95984 8.68116 2.44819C8.89372 2.93655 9 3.45703 9 4.00964C9 4.56225 8.89372 5.07952 8.68116 5.56145C8.4686 6.04338 8.18197 6.46426 7.82126 6.8241C7.46055 7.18394 7.03865 7.46988 6.55556 7.68193C6.07246 7.89398 5.55395 8 5 8C4.44605 8 3.92754 7.89398 3.44444 7.68193C2.96135 7.46988 2.53945 7.18394 2.17874 6.8241C1.81803 6.46426 1.5314 6.04338 1.31884 5.56145C1.10628 5.07952 1 4.56225 1 4.00964C1 3.45703 1.10628 2.93655 1.31884 2.44819C1.5314 1.95984 1.81803 1.53574 2.17874 1.1759C2.53945 0.816063 2.96135 0.530122 3.44444 0.318072C3.92754 0.106023 4.44605 0 5 0ZM5 2C4.45098 2 3.98039 2.19281 3.58823 2.57843C3.19608 2.96405 3 3.43791 3 4C3 4.54902 3.19608 5.01961 3.58823 5.41177C3.98039 5.80392 4.45098 6 5 6C5.54902 6 6.01961 5.80392 6.41177 5.41177C6.80392 5.01961 7 4.54902 7 4C7 3.43791 6.80392 2.96405 6.41177 2.57843C6.01961 2.19281 5.54902 2 5 2Z" fill="white"/>
</svg>
