<svg width="16" height="13" viewBox="0 0 16 13" fill="none" xmlns="http://www.w3.org/2000/svg">
<path fill-rule="evenodd" clip-rule="evenodd" d="M14.3718 3.66078C14.3718 3.5187 14.3718 3.37726 14.3622 3.23646C15.0047 2.77176 15.5593 2.19638 16 1.53726C15.4009 1.80273 14.7653 1.97683 14.1146 2.05374C14.7998 1.64349 15.3127 0.998234 15.5578 0.23806C14.9134 0.620431 14.2084 0.889908 13.4733 1.03486C12.4557 -0.0471276 10.8389 -0.311948 9.52931 0.388895C8.21976 1.08974 7.54322 2.58195 7.87904 4.02878C5.23961 3.89646 2.78046 2.64979 1.1136 0.59902C0.242318 2.09895 0.687352 4.01781 2.12992 4.9811C1.60751 4.96562 1.0965 4.82469 0.64 4.57022V4.61182C0.640427 6.17444 1.74192 7.52032 3.2736 7.82974C2.79032 7.96154 2.28325 7.98081 1.79136 7.88606C2.22141 9.22329 3.45381 10.1394 4.85824 10.1657C3.69583 11.0793 2.25988 11.5752 0.78144 11.5737C0.520258 11.5732 0.259331 11.5574 0 11.5264C1.50121 12.4898 3.24794 13.0008 5.03168 12.9984C11.0694 13.0009 14.3718 7.9987 14.3718 3.66078Z" fill="white"/>
</svg>
