<svg width="18" height="10" viewBox="0 0 18 10" fill="none" xmlns="http://www.w3.org/2000/svg">
<path fill-rule="evenodd" clip-rule="evenodd" d="M17.5603 0.685545C17.6388 0.312992 17.466 0.104247 17.0576 0.104247H15C14.5288 0.104247 14.356 0.297992 14.2147 0.581173C14.2147 0.581173 13.1022 2.83024 11.7487 4.24746C11.3142 4.70562 11.0933 4.8435 10.8534 4.8435C10.6599 4.8435 10.5707 4.69049 10.5707 4.27721V0.655734C10.5707 0.149059 10.5079 0 10.0681 0H6.7697C6.51834 0 6.36124 0.138641 6.36124 0.327804C6.36124 0.804981 7.13092 0.912742 7.13092 2.20563V4.87332C7.13092 5.40987 7.0995 5.61848 6.83247 5.61848C6.1257 5.61848 4.44507 3.30854 3.50269 0.685545C3.31417 0.149059 3.10998 0 2.57592 0H0.518385C0.219935 0 0 0.193682 0 0.4768C0 0.998412 0.643996 3.41279 3.17282 6.64683C4.86913 8.82265 7.0995 10 9.10993 10C10.3351 10 10.6335 9.80632 10.6335 9.31446V7.64531C10.6335 7.22801 10.8063 7.0492 11.0576 7.0492C11.3403 7.0492 11.8393 7.13537 13.0053 8.22654C14.3874 9.47845 14.4817 10 15.2357 10H17.5445C17.7801 10 18 9.89569 18 9.52314C18 9.03127 17.3246 8.15205 16.2879 7.10876C15.8639 6.57227 15.1728 5.9911 14.9529 5.72286C14.6388 5.40987 14.733 5.23093 14.9529 4.90313C14.9529 4.90313 17.3246 1.72877 17.5603 0.685545Z" fill="white"/>
</svg>
